M48
; DRILL file {KiCad (5.1.2)-2} date 23/07/2019 00:55:27
; FORMAT={-:-/ absolute / metric / decimal}
; #@! TF.CreationDate,2019-07-23T00:55:27+01:00
; #@! TF.GenerationSoftware,Kicad,Pcbnew,(5.1.2)-2
; #@! TF.FileFunction,Plated,1,2,PTH
FMAT,2
METRIC
T1C1.000
T2C1.100
T3C1.300
T4C1.400
%
G90
G05
T1
X53.5Y37.5
X87.5Y37.5
X2.06Y70.0
X53.06Y70.0
X48.0Y52.0
X48.0Y31.0
X92.5Y74.5
X92.5Y40.5
X45.5Y20.0
X94.5Y20.0
X2.06Y59.0
X53.06Y59.0
T2
X56.0Y60.5
X63.5Y60.5
T3
X12.075Y12.125
X34.575Y32.125
T4
X80.0Y5.0
X88.0Y5.0
X64.0Y5.0
X48.0Y5.0
X56.0Y5.0
X72.0Y5.0
T0
M30
